<?xml version="1.0" encoding="iso-8859-1"?>
<!-- Generator: Adobe Illustrator 19.0.0, SVG Export Plug-In . SVG Version: 6.00 Build 0)  -->
<svg version="1.1" id="Layer_1" xmlns="http://www.w3.org/2000/svg" xmlns:xlink="http://www.w3.org/1999/xlink" x="0px" y="0px"
	 viewBox="0 0 512 512" style="enable-background:new 0 0 512 512;" xml:space="preserve">
<rect x="16.568" y="230.346" style="fill:#BDBDC0;" width="478.863" height="273.636"/>
<rect x="16.568" y="230.346" style="fill:#A7A7AB;" width="17.102" height="273.636"/>
<rect x="204.692" y="332.959" style="fill:#E9E9EA;" width="102.614" height="76.96"/>
<polygon style="fill:#D3D3D5;" points="221.795,392.818 221.795,332.96 204.693,332.96 204.693,409.921 307.307,409.921 
	307.307,392.818 "/>
<circle style="fill:#383A43;" cx="110.63" cy="401.368" r="68.409"/>
<circle style="fill:#E9E9EA;" cx="110.63" cy="401.368" r="34.205"/>
<circle style="fill:#A7A7AB;" cx="110.63" cy="401.368" r="17.102"/>
<circle style="fill:#383A43;" cx="401.368" cy="401.368" r="68.409"/>
<circle style="fill:#E9E9EA;" cx="401.368" cy="401.368" r="34.205"/>
<circle style="fill:#A7A7AB;" cx="401.368" cy="401.368" r="17.102"/>
<rect x="50.772" y="230.346" style="fill:#FDB6CF;" width="410.454" height="68.409"/>
<g>
	<polygon style="fill:#FD5E95;" points="50.773,230.347 50.773,280.229 100.654,230.347 	"/>
	<polygon style="fill:#FD5E95;" points="159.8,230.347 112.768,230.347 50.773,292.342 50.773,298.756 91.391,298.756 	"/>
	<polygon style="fill:#FD5E95;" points="402.794,230.347 189.729,230.347 121.32,298.756 334.385,298.756 	"/>
	<polygon style="fill:#FD5E95;" points="440.561,230.347 372.152,298.756 424.172,298.756 461.227,261.702 461.227,230.347 	"/>
	<polygon style="fill:#FD5E95;" points="461.227,298.756 461.227,278.091 440.561,298.756 	"/>
</g>
<rect x="204.692" y="435.573" style="fill:#7DBB34;" width="102.614" height="34.205"/>
<polygon style="fill:#4E5058;" points="273.102,375.716 238.898,375.716 230.346,332.96 281.653,332.96 "/>
<g>
	<rect x="170.487" y="204.692" style="fill:#FFE88A;" width="34.205" height="25.653"/>
	<rect x="102.078" y="204.692" style="fill:#FFE88A;" width="34.205" height="25.653"/>
	<rect x="392.817" y="204.692" style="fill:#FFE88A;" width="34.205" height="25.653"/>
</g>
<rect x="50.772" y="119.181" style="fill:#7A7C82;" width="410.454" height="34.205"/>
<rect x="50.772" y="119.181" style="fill:#64666D;" width="17.102" height="34.205"/>
<path d="M495.431,222.33h-26.215c0.012-0.177,0.027-0.354,0.027-0.534V119.182c0-4.427-3.588-8.017-8.017-8.017H338.756
	l60.89-98.946c2.29-3.721,1.093-8.739-2.626-11.029c-3.721-2.291-8.738-1.095-11.029,2.626l-66.062,107.349H192.07L126.009,3.817
	c-2.322-3.771-7.258-4.947-11.029-2.626c-3.77,2.319-4.947,7.258-2.626,11.029l60.89,98.946H50.773
	c-4.428,0-8.017,3.589-8.017,8.017V222.33H16.568c-4.428,0-8.017,3.589-8.017,8.017v273.636c0,4.427,3.588,8.017,8.017,8.017h68.409
	c4.428,0,8.017-3.589,8.017-8.017c0-4.427-3.588-8.017-8.017-8.017H24.585V238.363h18.171v60.392c0,4.427,3.588,8.017,8.017,8.017
	h273.636c4.428,0,8.017-3.589,8.017-8.017s-3.588-8.017-8.017-8.017H58.789v-52.376H453.21v52.376h-94.597
	c-4.428,0-8.017,3.589-8.017,8.017s3.588,8.017,8.017,8.017h102.614c4.428,0,8.017-3.589,8.017-8.017v-60.392h18.171v257.603
	H119.182c-4.428,0-8.017,3.589-8.017,8.017c0,4.427,3.588,8.017,8.017,8.017h376.25c4.428,0,8.017-3.589,8.017-8.017V230.347
	C503.448,225.919,499.859,222.33,495.431,222.33z M58.789,127.199H453.21v0.534v17.637H58.789v-17.637
	C58.789,127.733,58.789,127.199,58.789,127.199z M204.693,196.677h-34.205c-4.428,0-8.017,3.589-8.017,8.017v17.637h-18.171v-17.637
	c0-4.427-3.588-8.017-8.017-8.017h-34.205c-4.428,0-8.017,3.589-8.017,8.017v17.637H58.789v-60.927h145.37l37.493,60.927H212.71
	v-17.637C212.71,200.266,209.12,196.677,204.693,196.677z M222.986,161.403h66.028L256,215.05L222.986,161.403z M110.096,222.33
	v-9.62h18.171v9.62H110.096z M178.505,222.33v-9.62h18.171v9.62H178.505z M400.835,222.33v-9.62h18.171v9.62H400.835z
	 M435.039,222.33v-17.637c0-4.427-3.588-8.017-8.017-8.017h-34.205c-4.428,0-8.017,3.589-8.017,8.017v17.637H270.346l37.493-60.927
	h145.37v60.392c0,0.181,0.015,0.357,0.027,0.534H435.039z"/>
<path d="M204.693,417.937h102.614c4.428,0,8.017-3.589,8.017-8.017v-76.96c0-4.427-3.588-8.017-8.017-8.017H204.693
	c-4.428,0-8.017,3.589-8.017,8.017v76.96C196.676,414.348,200.265,417.937,204.693,417.937z M271.874,340.977l-5.344,26.722h-21.06
	l-5.344-26.722H271.874z M212.71,340.977h11.064l7.262,36.311c0.749,3.748,4.039,6.444,7.861,6.444h34.205
	c3.821,0,7.111-2.697,7.861-6.444l7.262-36.311h11.064v60.927h-86.58v-60.927H212.71z"/>
<path d="M187.056,401.369c0-42.141-34.285-76.426-76.426-76.426s-76.426,34.285-76.426,76.426s34.285,76.426,76.426,76.426
	S187.056,443.512,187.056,401.369z M110.631,461.762c-33.3,0-60.392-27.092-60.392-60.392s27.092-60.392,60.392-60.392
	s60.392,27.092,60.392,60.392S143.931,461.762,110.631,461.762z"/>
<path d="M110.631,359.148c-23.28,0-42.221,18.941-42.221,42.221s18.941,42.221,42.221,42.221s42.221-18.941,42.221-42.221
	S133.911,359.148,110.631,359.148z M110.631,427.557c-14.441,0-26.188-11.748-26.188-26.188c0-14.44,11.747-26.188,26.188-26.188
	s26.188,11.748,26.188,26.188C136.818,415.809,125.07,427.557,110.631,427.557z"/>
<path d="M401.369,477.795c42.141,0,76.426-34.285,76.426-76.426s-34.285-76.426-76.426-76.426s-76.426,34.285-76.426,76.426
	S359.228,477.795,401.369,477.795z M401.369,340.977c33.3,0,60.392,27.092,60.392,60.392s-27.092,60.392-60.392,60.392
	s-60.392-27.092-60.392-60.392S368.068,340.977,401.369,340.977z"/>
<path d="M401.369,443.591c23.28,0,42.221-18.941,42.221-42.221s-18.941-42.221-42.221-42.221c-23.28,0-42.221,18.941-42.221,42.221
	S378.088,443.591,401.369,443.591z M401.369,375.182c14.441,0,26.188,11.748,26.188,26.188c0,14.44-11.747,26.188-26.188,26.188
	s-26.188-11.748-26.188-26.188C375.181,386.93,386.928,375.182,401.369,375.182z"/>
<path d="M427.022,272.568c4.428,0,8.017-3.589,8.017-8.017c0-4.427-3.588-8.017-8.017-8.017h-8.551
	c-4.428,0-8.017,3.589-8.017,8.017c0,4.427,3.588,8.017,8.017,8.017H427.022z"/>
<path d="M384.267,272.568c4.428,0,8.017-3.589,8.017-8.017c0-4.427-3.588-8.017-8.017-8.017h-17.102
	c-4.428,0-8.017,3.589-8.017,8.017c0,4.427,3.588,8.017,8.017,8.017H384.267z"/>
<path d="M332.96,256.535h-8.551c-4.428,0-8.017,3.589-8.017,8.017c0,4.427,3.588,8.017,8.017,8.017h8.551
	c4.428,0,8.017-3.589,8.017-8.017C340.977,260.124,337.387,256.535,332.96,256.535z"/>
<path d="M273.102,256.535c-4.428,0-8.017,3.589-8.017,8.017c0,4.427,3.588,8.017,8.017,8.017h17.102
	c4.428,0,8.017-3.589,8.017-8.017c0-4.427-3.588-8.017-8.017-8.017H273.102z"/>
<path d="M221.795,256.535c-4.428,0-8.017,3.589-8.017,8.017c0,4.427,3.588,8.017,8.017,8.017h17.102
	c4.428,0,8.017-3.589,8.017-8.017c0-4.427-3.588-8.017-8.017-8.017H221.795z"/>
<path d="M136.284,256.535c-4.428,0-8.017,3.589-8.017,8.017c0,4.427,3.588,8.017,8.017,8.017h34.205
	c4.428,0,8.017-3.589,8.017-8.017c0-4.427-3.588-8.017-8.017-8.017H136.284z"/>
<path d="M84.977,256.535c-4.428,0-8.017,3.589-8.017,8.017c0,4.427,3.588,8.017,8.017,8.017h25.653c4.428,0,8.017-3.589,8.017-8.017
	c0-4.427-3.588-8.017-8.017-8.017H84.977z"/>
<path d="M196.676,469.778c0,4.427,3.588,8.017,8.017,8.017h102.614c4.428,0,8.017-3.589,8.017-8.017v-34.205
	c0-4.427-3.588-8.017-8.017-8.017H204.693c-4.428,0-8.017,3.589-8.017,8.017V469.778z M246.914,461.762v-18.171h18.171v17.637
	c0,0.181,0.015,0.357,0.027,0.534H246.914z M299.29,461.762h-18.198c0.012-0.177,0.027-0.354,0.027-0.534v-17.637h18.171V461.762z
	 M212.71,443.591h18.171v18.171H212.71V443.591z"/>
<g>
</g>
<g>
</g>
<g>
</g>
<g>
</g>
<g>
</g>
<g>
</g>
<g>
</g>
<g>
</g>
<g>
</g>
<g>
</g>
<g>
</g>
<g>
</g>
<g>
</g>
<g>
</g>
<g>
</g>
</svg>
